<svg width="19" height="19" viewBox="0 0 19 19" fill="none" xmlns="http://www.w3.org/2000/svg">
<path d="M9.63275 5.16589C7.15964 5.16589 5.16372 7.16182 5.16372 9.63493C5.16372 12.108 7.15964 14.104 9.63275 14.104C12.1059 14.104 14.1018 12.108 14.1018 9.63493C14.1018 7.16182 12.1059 5.16589 9.63275 5.16589ZM9.63275 12.5395C8.0334 12.5395 6.72821 11.2343 6.72821 9.63493C6.72821 8.03558 8.0334 6.73038 9.63275 6.73038C11.2321 6.73038 12.5373 8.03558 12.5373 9.63493C12.5373 11.2343 11.2321 12.5395 9.63275 12.5395ZM14.2848 3.94132C13.7074 3.94132 13.2411 4.40762 13.2411 4.98504C13.2411 5.56246 13.7074 6.02876 14.2848 6.02876C14.8622 6.02876 15.3285 5.56464 15.3285 4.98504C15.3287 4.84793 15.3018 4.71213 15.2494 4.58542C15.1971 4.45872 15.1202 4.34359 15.0232 4.24664C14.9263 4.14968 14.8111 4.07281 14.6844 4.02042C14.5577 3.96803 14.4219 3.94115 14.2848 3.94132V3.94132ZM18.3442 9.63493C18.3442 8.43215 18.3551 7.24026 18.2876 6.03966C18.22 4.64512 17.9019 3.40748 16.8821 2.38773C15.8602 1.3658 14.6247 1.04985 13.2302 0.9823C12.0274 0.914753 10.8355 0.925647 9.63493 0.925647C8.43215 0.925647 7.24026 0.914753 6.03966 0.9823C4.64513 1.04985 3.40748 1.36798 2.38773 2.38773C1.3658 3.40966 1.04985 4.64512 0.982304 6.03966C0.914756 7.24244 0.925651 8.43433 0.925651 9.63493C0.925651 10.8355 0.914756 12.0296 0.982304 13.2302C1.04985 14.6247 1.36798 15.8624 2.38773 16.8821C3.40966 17.9041 4.64513 18.22 6.03966 18.2876C7.24244 18.3551 8.43433 18.3442 9.63493 18.3442C10.8377 18.3442 12.0296 18.3551 13.2302 18.2876C14.6247 18.22 15.8624 17.9019 16.8821 16.8821C17.9041 15.8602 18.22 14.6247 18.2876 13.2302C18.3573 12.0296 18.3442 10.8377 18.3442 9.63493V9.63493ZM16.4267 14.7729C16.2677 15.1695 16.0759 15.4658 15.7687 15.7709C15.4615 16.0781 15.1673 16.2698 14.7707 16.4289C13.6246 16.8843 10.9031 16.7819 9.63275 16.7819C8.36242 16.7819 5.63873 16.8843 4.4926 16.4311C4.09603 16.272 3.79969 16.0803 3.49464 15.773C3.18741 15.4658 2.99566 15.1717 2.83659 14.7751C2.38337 13.6268 2.48578 10.9053 2.48578 9.63493C2.48578 8.3646 2.38337 5.64091 2.83659 4.49478C2.99566 4.09821 3.18741 3.80187 3.49464 3.49681C3.80187 3.19176 4.09603 2.99783 4.4926 2.83877C5.63873 2.38555 8.36242 2.48796 9.63275 2.48796C10.9031 2.48796 13.6268 2.38555 14.7729 2.83877C15.1695 2.99783 15.4658 3.18958 15.7709 3.49681C16.0781 3.80405 16.2699 4.09821 16.4289 4.49478C16.8821 5.64091 16.7797 8.3646 16.7797 9.63493C16.7797 10.9053 16.8821 13.6268 16.4267 14.7729Z" fill="white"/>
</svg>
