<svg width="14" height="28" viewBox="0 0 14 28" fill="none" xmlns="http://www.w3.org/2000/svg">
<path d="M3 14C3 14.7911 3.2346 15.5645 3.67412 16.2223C4.11365 16.8801 4.73836 17.3928 5.46927 17.6955C6.20017 17.9983 7.00444 18.0775 7.78036 17.9231C8.55629 17.7688 9.26902 17.3878 9.82843 16.8284C10.3878 16.269 10.7688 15.5563 10.9231 14.7804C11.0775 14.0044 10.9983 13.2002 10.6955 12.4693C10.3928 11.7384 9.88008 11.1136 9.22228 10.6741C8.56448 10.2346 7.79113 10 7 10C5.93913 10 4.92172 10.4214 4.17157 11.1716C3.42143 11.9217 3 12.9391 3 14V14ZM9 14C9 14.3956 8.8827 14.7822 8.66294 15.1111C8.44318 15.44 8.13082 15.6964 7.76537 15.8478C7.39992 15.9991 6.99778 16.0387 6.60982 15.9616C6.22186 15.8844 5.86549 15.6939 5.58579 15.4142C5.30608 15.1345 5.1156 14.7781 5.03843 14.3902C4.96126 14.0022 5.00087 13.6001 5.15224 13.2346C5.30362 12.8692 5.55996 12.5568 5.88886 12.3371C6.21776 12.1173 6.60444 12 7 12C7.53043 12 8.03914 12.2107 8.41421 12.5858C8.78929 12.9609 9 13.4696 9 14Z" fill="black"/>
<path d="M7 25.17L1.4 19.58L0 21L7 28L14 21L12.59 19.59L7 25.17Z" fill="black"/>
<path d="M7 2.83L12.58 8.4L14 7L7 0L0 7L1.41 8.41L7 2.83Z" fill="black"/>
</svg>
