<svg width="20" height="16" viewBox="0 0 20 16" fill="none" xmlns="http://www.w3.org/2000/svg">
<path d="M19.5125 2.01745C18.8092 2.31621 18.0438 2.53122 17.2554 2.61496C18.0739 2.13613 18.6869 1.37965 18.9792 0.487451C18.2112 0.937373 17.3698 1.25287 16.4924 1.41994C16.1257 1.03387 15.6821 0.72632 15.1894 0.516438C14.6967 0.306556 14.1654 0.198842 13.6286 0.20001C11.4566 0.20001 9.70979 1.93371 9.70979 4.06122C9.70979 4.35998 9.74657 4.65874 9.80632 4.94618C6.55409 4.77869 3.6535 3.24869 1.72514 0.906164C1.37378 1.49715 1.18965 2.17006 1.19191 2.85488C1.19191 4.19476 1.88373 5.37621 2.9387 6.07104C2.31699 6.04693 1.70984 5.87866 1.16663 5.5799V5.62743C1.16663 7.50372 2.5135 9.05861 4.30855 9.41622C3.97151 9.50243 3.62479 9.54653 3.27657 9.54749C3.02144 9.54749 2.78011 9.52259 2.53648 9.48864C3.03293 11.0186 4.47863 12.1299 6.20013 12.1661C4.85327 13.205 3.16624 13.8161 1.33442 13.8161C1.00574 13.8161 0.702355 13.8048 0.387474 13.7686C2.12507 14.8663 4.18673 15.5 6.40699 15.5C13.6148 15.5 17.5588 9.61992 17.5588 4.51615C17.5588 4.34866 17.5588 4.18118 17.5473 4.01369C18.3104 3.46371 18.9792 2.78245 19.5125 2.01745Z" fill="white"/>
</svg>
