<svg width="22" height="21" viewBox="0 0 22 21" fill="none" xmlns="http://www.w3.org/2000/svg">
<path d="M11.0012 9.02422e-07C4.92303 -0.00240901 0 4.82224 0 10.7771C0 15.4861 3.07966 19.489 7.36856 20.959C7.94615 21.1012 7.85767 20.6988 7.85767 20.424V18.5563C4.5224 18.9395 4.38722 16.7754 4.16356 16.4139C3.71132 15.6572 2.64216 15.4644 2.96168 15.1029C3.72115 14.7198 4.49536 15.1993 5.39247 16.4983C6.04134 17.4406 7.30712 17.2815 7.94861 17.1249C8.08871 16.5585 8.38856 16.0524 8.80148 15.6596C5.34577 15.0523 3.90549 12.9846 3.90549 10.5265C3.90549 9.3336 4.30611 8.23709 5.09262 7.35265C4.59122 5.89465 5.13931 4.64632 5.21305 4.46075C6.64105 4.33544 8.12557 5.46328 8.24109 5.55245C9.05217 5.33796 9.97877 5.2247 11.016 5.2247C12.0581 5.2247 12.9872 5.34278 13.8056 5.55967C14.0833 5.35242 15.4597 4.38364 16.787 4.50172C16.8582 4.68729 17.394 5.9067 16.9221 7.34542C17.7185 8.23227 18.124 9.33842 18.124 10.5337C18.124 12.9967 16.6739 15.0668 13.2084 15.6644C13.5052 15.9507 13.7409 16.292 13.9017 16.6686C14.0624 17.0451 14.1451 17.4493 14.1448 17.8575V20.5686C14.1645 20.7855 14.1448 21 14.5135 21C18.8663 19.5613 22 15.5295 22 10.7796C22 4.82224 17.0745 9.02422e-07 11.0012 9.02422e-07V9.02422e-07Z" fill="white"/>
</svg>
