<svg width="25" height="23" viewBox="0 0 25 23" fill="none" xmlns="http://www.w3.org/2000/svg">
<path d="M12.4895 0.0118113C5.96885 0.00917457 0.6875 5.28789 0.6875 11.8032C0.6875 16.9554 3.99131 21.335 8.59238 22.9434C9.21201 23.0989 9.11709 22.6586 9.11709 22.358V20.3145C5.53906 20.7338 5.39404 18.366 5.1541 17.9705C4.66895 17.1426 3.52197 16.9316 3.86475 16.5361C4.67949 16.1169 5.51006 16.6416 6.47246 18.0628C7.16855 19.0937 8.52646 18.9197 9.21465 18.7483C9.36494 18.1287 9.68662 17.575 10.1296 17.1452C6.42236 16.4808 4.87725 14.2185 4.87725 11.529C4.87725 10.2238 5.30703 9.02412 6.15078 8.05644C5.61289 6.46123 6.20088 5.0954 6.27998 4.89238C7.81191 4.75527 9.40449 5.98925 9.52842 6.08681C10.3985 5.85214 11.3926 5.72822 12.5053 5.72822C13.6232 5.72822 14.6199 5.85742 15.4979 6.09472C15.7959 5.86796 17.2725 4.808 18.6963 4.9372C18.7728 5.14023 19.3476 6.47441 18.8413 8.04853C19.6956 9.01884 20.1307 10.2291 20.1307 11.5369C20.1307 14.2316 18.575 16.4966 14.8572 17.1505C15.1757 17.4636 15.4285 17.8371 15.601 18.2491C15.7735 18.6611 15.8621 19.1033 15.8618 19.5499V22.5162C15.8829 22.7535 15.8618 22.9882 16.2573 22.9882C20.927 21.4141 24.2888 17.0028 24.2888 11.8059C24.2888 5.28789 19.0048 0.0118113 12.4895 0.0118113V0.0118113Z" fill="black"/>
</svg>
