<svg width="19" height="18" viewBox="0 0 19 18" fill="none" xmlns="http://www.w3.org/2000/svg">
<path d="M4.76895 17.137V5.9539H1.07925V17.137H4.76895ZM2.92458 4.42612C4.21124 4.42612 5.01212 3.56739 5.01212 2.49425C4.98815 1.39692 4.21129 0.562023 2.94899 0.562023C1.6869 0.562023 0.861565 1.39694 0.861565 2.49425C0.861565 3.56744 1.66225 4.42612 2.90049 4.42612H2.92446H2.92458ZM6.81118 17.137H10.5009V10.8918C10.5009 10.5576 10.5248 10.2237 10.6223 9.98478C10.889 9.31699 11.4961 8.62535 12.5154 8.62535C13.8505 8.62535 14.3846 9.65088 14.3846 11.1542V17.137H18.0741V10.7247C18.0741 7.28963 16.2538 5.69136 13.8262 5.69136C11.8358 5.69136 10.9618 6.81219 10.4763 7.57559H10.501V5.95367H6.81126C6.85968 7.00304 6.81126 17.1368 6.81126 17.1368L6.81118 17.137Z" fill="white"/>
</svg>
